<?xml version="1.0" encoding="UTF-8"?>
<svg width="322px" height="125px" viewBox="0 0 322 125" version="1.1" xmlns="http://www.w3.org/2000/svg" xmlns:xlink="http://www.w3.org/1999/xlink">
    <!-- Generator: Sketch 51.3 (57544) - http://www.bohemiancoding.com/sketch -->
    <title>Artboard</title>
    <desc>Created with Sketch.</desc>
    <defs></defs>
    <g id="Artboard" stroke="none" stroke-width="1" fill="none" fill-rule="evenodd">
        <g id="eye-logos">
            <path d="M21.4413805,62.7989637 C12.154812,62.7989637 6.15813642,56.5792746 6.15813642,46.9772021 C6.15813642,35.253886 14.080001,31.5595855 21.4712044,31.5595855 C30.3217258,31.5595855 36.7451928,37.7378238 36.7451928,46.8984456 C36.7451928,56.2569948 30.4471922,62.7989637 21.4413805,62.7989637 Z M41.518057,17 L38.3227781,17 C37.5051899,17 36.8346647,17.6735751 36.8346647,18.4953368 L36.8346647,32.2300518 C33.2969243,27.8663212 27.8319382,25.426943 21.2994595,25.426943 C8.56873625,25.426943 0,33.8082902 0,46.9772021 C0,60.1481865 8.52245767,69 21.2058739,69 C27.4020616,69 33.0963838,66.3647668 36.8212953,61.9367876 L36.8212953,68.3440415 L42.9969148,68.3440415 L43,18.4953368 C43,17.6735751 42.33256,17 41.518057,17 Z" id="Fill-21" fill="#003057"></path>
            <path d="M160.443945,62.8805175 C151.157294,62.8805175 145.156816,56.7426275 145.156816,47.2668379 C145.156816,35.6977026 153.076542,32.0519882 160.471715,32.0519882 C169.323295,32.0519882 175.74753,38.1489726 175.74753,47.1891172 C175.74753,56.4245862 169.448777,62.8805175 160.443945,62.8805175 Z M180.519937,27.1371766 L177.325304,27.1371766 C176.507618,27.1371766 175.840099,27.8008704 175.840099,28.6118246 L175.840099,32.7136368 C172.299878,28.4072964 166.83321,26 160.29995,26 C147.567704,26 139,34.2711187 139,47.2668379 C139,60.2646024 147.52142,69 160.204296,69 C166.403282,69 172.096228,66.3994245 175.822613,62.0296804 L175.822613,68.3526684 L182,68.3526684 L182,28.6118246 C182,27.8008704 181.334537,27.1371766 180.519937,27.1371766 Z" id="Fill-22" fill="#003057"></path>
            <path d="M99.2529,46.8984456 C99.2529,37.7378238 105.679606,31.5595855 114.526225,31.5595855 C121.921719,31.5595855 129.842745,35.253886 129.842745,46.9772021 C129.842745,56.5792746 123.84284,62.7989637 114.55605,62.7989637 C105.550023,62.7989637 99.2529,56.2569948 99.2529,46.8984456 Z M93,18.4953368 L93.0102844,68.3440415 L99.1767956,68.3440415 L99.1767956,61.9367876 C102.902825,66.3647668 108.596255,69 114.79259,69 C127.479395,69 136,60.1481865 136,46.9772021 C136,33.8082902 127.433116,25.426943 114.699003,25.426943 C108.166368,25.426943 102.700222,27.8663212 99.161369,32.2300518 L99.161369,18.4953368 C99.161369,17.6735751 98.4949415,17 97.6773337,17 L94.4830069,17 C93.6674559,17 93,17.6735751 93,18.4953368 Z" id="Fill-23" fill="#003057"></path>
            <path d="M80.6083133,50.3912449 C80.6083133,58.1179891 74.8838263,63.7814637 66.8998135,63.8604651 C58.363709,63.8604651 53.3863576,59.2199042 53.3863576,51.1155951 L53.3863576,29.4794802 C53.3863576,28.6658687 52.6967759,28 51.8515854,28 L48.5411671,28 C47.6959766,28 47,28.6658687 47,29.4794802 L47,51.1966484 C47,62.624145 54.8316014,70 66.9573674,70 L66.971223,70 C72.5464961,69.9220246 77.3426592,67.9551984 80.6147082,64.502736 L80.6147082,69.3505472 L86.9936051,69.3505472 L87,29.4794802 C87,28.6658687 86.3072209,28 85.4630962,28 L82.151612,28 C81.3053557,28 80.6136424,28.6658687 80.6136424,29.4794802 L80.6083133,50.3912449" id="Fill-24" fill="#003057"></path>
            <path d="M188,69 L194,69 L194,29.4669379 C194,28.6602238 193.35457,28 192.559039,28 L189.450967,28 C188.656438,28 188.005003,28.6602238 188.005003,29.4669379 L188,69" id="Fill-25" fill="#003057"></path>
            <path d="M203.233923,45.8546492 C204.16019,35.6297503 211.592064,29.7989298 220.21308,29.7989298 C230.270587,29.7989298 237.029753,35.5489655 237.108408,45.8546492 L203.233923,45.8546492 Z M220.21308,26 C208.472768,26 199,35.043805 199,47.5388585 C199,60.8080143 208.472768,69 220.21308,69 C232.515363,69 238.214754,60.971629 238.214754,60.971629 L235.263117,58.6012604 C235.263117,58.6012604 230.456875,64.9484899 220.21308,64.9484899 C211.592064,64.9484899 204.075325,59.2915101 203.233923,49.4787158 L240.838317,49.4787158 C242.435223,33.1847325 231.958567,26 220.21308,26 Z" id="Fill-26" fill="#003057"></path>
            <path d="M284.233717,45.8546492 C285.159939,35.6297503 292.588348,29.7989298 301.212049,29.7989298 C311.266996,29.7989298 318.027904,35.5489655 318.10759,45.8546492 L284.233717,45.8546492 Z M301.212049,26 C289.470237,26 280,35.043805 280,47.5388585 C280,60.8080143 289.470237,69 301.212049,69 C313.511663,69 319.213882,60.971629 319.213882,60.971629 L316.261354,58.6012604 C316.261354,58.6012604 311.454311,64.9484899 301.212049,64.9484899 C292.588348,64.9484899 285.076114,59.2915101 284.233717,49.4787158 L321.838352,49.4787158 C323.435181,33.1847325 312.956965,26 301.212049,26 Z" id="Fill-27" fill="#003057"></path>
            <path d="M280.486791,28 L277.558451,28 C277.148275,28 276.67891,28.3091471 276.51484,28.6863066 L261.282276,63.8517912 L247.070478,28.6924895 C246.919907,28.3122386 246.461965,28 246.049712,28 L243.048682,28 C242.634353,28 242.424593,28.3101776 242.582432,28.6893981 L259.008139,68.5508274 C253.168072,82.7829302 239.427716,91.9831485 223.931394,91.9831485 C214.396634,91.9831485 205.664571,88.4588713 199,82.6613324 L199,87.8395466 C205.964674,92.9621143 214.601202,96 223.931394,96 C237.214846,96 250.023741,89.676911 257.677925,78.9247742 C262.577184,72.0514033 280.946811,28.6873371 280.946811,28.6873371 C281.105689,28.3091471 280.895928,28 280.486791,28" id="Fill-28" fill="#003057"></path>
            <path d="M43.4840006,118.834992 C35.1787418,118.834992 31.3935835,112.298487 31.3935835,106.227632 L31.3935835,96.7795318 C31.3935835,90.7260751 35.1777096,84.2151551 43.4840006,84.2151551 C51.8140326,84.2151551 55.6074487,90.7260751 55.6074487,96.7795318 L55.6074487,106.227632 C55.6074487,112.186935 52.0173804,118.834992 43.4840006,118.834992 Z M43.4840006,78 C34.5810852,78 25,83.8764072 25,96.7795318 L25,106.227632 C25,119.124616 34.5810852,125 43.4840006,125 C52.4023992,125 62,119.124616 62,106.227632 L62,96.7795318 C62,83.8764072 52.4023992,78 43.4840006,78 Z" id="Fill-29" fill="#003057"></path>
            <path d="M115.500578,116 C113.316729,116 111,117.577967 111,120.501164 C111,123.422033 113.316729,125 115.500578,125 C117.682116,125 120,123.422033 120,120.501164 C120,117.577967 117.682116,116 115.500578,116" id="Fill-30" fill="#003057"></path>
            <path d="M8.53460135,78.0041868 L3.498105,78 C2.67588433,78 2,78.6719818 2,79.4884083 L2,82.6881723 C2,83.5045988 2.67588433,84.1755339 3.498105,84.1755339 L7.79449747,84.1755339 L7.79449747,84.1671603 L10.4148652,84.1671603 L10.4148652,125 L17,125 L17,78.0041868 L8.53460135,78.0041868" id="Fill-31" fill="#003057"></path>
            <path d="M145.034929,118.895546 C137.57983,118.895546 131.539635,115.356272 131.539635,110.990247 C131.539635,106.623199 137.57983,103.088018 145.034929,103.088018 C152.485859,103.088018 158.528139,106.623199 158.528139,110.990247 C158.528139,115.356272 152.485859,118.895546 145.034929,118.895546 Z M132.236139,91.0673793 C132.236139,87.0523142 137.964575,83.7995385 145.034929,83.7995385 C152.101113,83.7995385 157.829549,87.0523142 157.829549,91.0673793 C157.829549,95.0814212 152.101113,98.3331737 145.034929,98.3331737 C137.964575,98.3331737 132.236139,95.0814212 132.236139,91.0673793 Z M157.428121,101.326055 C161.88137,99.0453259 164.292026,95.5623286 164.292026,91.3242043 C164.261789,86.829255 162.063838,83.21938 157.929646,80.8926068 C154.622292,79.0283232 150.041837,78 145.034929,78 C140.147929,78 135.607095,79.0252536 132.253864,80.8854443 C128.010192,83.2377977 125.770534,86.8507424 125.770534,91.3344364 C125.770534,95.5858623 128.007064,98.9573301 132.27576,101.184852 C127.618148,103.272195 125,106.843188 125,111.249118 C125.033365,115.987591 127.444022,119.763225 131.9713,122.170832 C136.601804,124.634715 142.143602,125 145.034929,125 C147.926257,125 153.467012,124.634715 158.09126,122.170832 C162.609155,119.760156 165,115.978382 165,111.239909 C165,106.869791 162.39645,103.478883 157.428121,101.326055 Z" id="Fill-32" fill="#003057"></path>
            <path d="M87.4694029,98.4991946 C94.962622,98.4991946 99.0626275,94.6860333 99.1187221,91.0836345 C99.1381002,89.5663503 98.5383979,88.1452392 97.3859088,86.9768383 C95.3858813,84.9449258 91.9100557,83.8287039 87.593831,83.8287039 C84.7574839,83.8287039 76.2413033,83.8338195 75.8975963,90.3827986 L75.8975963,91.8888284 C75.8975963,92.7155079 75.2234412,93.3917889 74.3973207,93.3917889 L71.1683114,93.3917889 C70.3432108,93.3917889 69.6455979,92.7288084 69.6455979,91.9011058 L69.6425382,90.7828377 C69.6782347,85.8248073 72.1984123,82.0934956 76.8440653,79.992011 C80.4800154,78.3478602 84.6616131,78 87.531617,78 C98.1783726,78 105.108606,83.1401454 105.186118,91.0928425 C105.186118,95.1914537 102.701637,99.0936262 98.9188213,101.261613 C103.344176,103.387653 106,106.998237 106,111.075362 C106,119.532457 98.797453,125 87.656045,125 C84.6412151,125 80.2474778,124.640886 76.4381443,122.936371 C71.6782623,120.810331 69.1213683,117.065719 69.0122388,112.097457 C69,112.097457 69,111.637054 69,110.556642 C69,109.475206 69.9760461,109.091536 70.4778378,109.091536 C70.9429131,109.091536 73.7313248,109.091536 73.7313248,109.091536 C74.6074205,109.091536 75.2336402,109.761679 75.245879,110.560734 C75.245879,110.727502 75.2560781,111.522465 75.2560781,111.756759 C75.2958542,116.733206 79.0225757,118.859245 87.7192789,118.859245 C93.5622967,118.859245 99.806136,116.848818 99.806136,111.203252 C99.806136,107.274479 95.6337174,103.308873 87.656045,103.308873 L79.372402,103.316035 C78.5656596,103.316035 77.9027234,102.647939 77.9027234,101.839675 L77.9027234,99.9816927 C77.9027234,99.1683138 78.5656596,98.5043102 79.372402,98.5043102 L87.4694029,98.4991946" id="Fill-33" fill="#003057"></path>
            <path d="M320,5.51529293 L320,16 L309.406224,16 C306.951556,16 304.862368,14.4451031 304.101636,12.2847954 L304.101636,16 L293.50786,16 C291.046006,16 288.962977,14.4451031 288.205326,12.2847954 L288.205326,16 L277.60847,16 C274.510106,16 272,13.5309327 272,10.4836981 L272,0 L282.591723,0 C285.052551,0 287.133526,1.55388787 287.896311,3.71722268 L287.896311,0 L298.494193,0 C300.946808,0 303.039076,1.55388787 303.797754,3.71722268 L303.797754,0 L314.39153,0 C317.490921,0 320,2.46906729 320,5.51529293" id="Fill-34" fill="#003057"></path>
            <path d="M290.936783,2 L290.936783,12 L293.478683,12 L293.478683,8.89358689 L297.516907,12 L301.061158,12 L297.029109,8.89358689 L297.554984,8.89358689 C299.493825,8.89358689 301.061158,7.35201295 301.061158,5.44628768 C301.061158,3.54460854 299.493825,2 297.554984,2 L290.936783,2 Z M293.478683,6.96055027 L293.478683,4.49747117 L297.31726,4.49747117 C298.00985,4.49747117 298.570714,5.05077888 298.570714,5.72850496 C298.570714,6.40926563 298.00985,6.96055027 297.31726,6.96055027 L293.478683,6.96055027 Z M275,2 L275,12 L277.541899,12 L277.541899,8.89358689 L282.628786,8.89358689 L282.628786,12 L285.124375,12 L285.124375,5.44628768 C285.124375,3.54460854 283.557042,2 281.620259,2 L275,2 Z M277.541899,6.96055027 L277.541899,4.49747117 L281.378418,4.49747117 C281.972214,4.49747117 282.469274,4.90208375 282.596883,5.44628768 C282.620553,5.53833704 282.628786,5.63240947 282.628786,5.72850496 L282.628786,6.96055027 L277.541899,6.96055027 Z M306.874596,2 L306.874596,12 L309.416495,12 L309.416495,4.49747117 L313.250956,4.49747117 C313.845781,4.49747117 314.343869,4.90208375 314.472508,5.44628768 C314.49309,5.53833704 314.506469,5.63240947 314.506469,5.72850496 L314.506469,12 L317,12 L317,5.44628768 C317,3.54460854 315.433696,2 313.494854,2 L306.874596,2 Z" id="Fill-35" fill="#003057"></path>
        </g>
    </g>
</svg>