<?xml version="1.0" encoding="utf-8"?>
<!-- Generator: Adobe Illustrator 24.0.2, SVG Export Plug-In . SVG Version: 6.00 Build 0)  -->
<svg version="1.1" id="Layer_1" xmlns="http://www.w3.org/2000/svg" xmlns:xlink="http://www.w3.org/1999/xlink" x="0px" y="0px"
	 viewBox="0 0 505 70" style="enable-background:new 0 0 505 70;" xml:space="preserve">
<style type="text/css">
	.st0{fill-rule:evenodd;clip-rule:evenodd;fill:#1068B2;}
	.st1{fill-rule:evenodd;clip-rule:evenodd;fill:#1a1a1a;}
	.st2{fill:#1a1a1a;}
</style>
<g>
	<g>
		<path class="st0" d="M243.9,31.1h4.6v16.1h-4.6V31.1z"/>
		<path class="st0" d="M252.6,20.4l3.7,4.7v21.6h-3.7V20.4z"/>
		<path class="st1" d="M261.8,47.6V34.9l0,0v-8.5l-8.7-7.8c0,1.1,0,2.7,0,4.2l0,0v23.4h3.1V24l1.3,1.3v21l0,0v1.3H253h-1.3v-1.3
			V32.9l0,0V15.5L263.1,26v4.5l0,0v17.2L261.8,47.6L261.8,47.6z M256.2,5.2l-11.9,13.1v8.3H243v-8.9l14.6-16.1v16.7l-1.3-1.3
			C256.2,16.8,256.2,9.3,256.2,5.2z M246.1,20h1.3v1.3h-1.3V20z M249.3,28v1.3v17v1.3H248h-3.6h-1.3v-1.3V31.1h1.3v15.2h3.6v-17
			h-8.8v18.3h-1.3V29.3V28h1.3h8.8C248,28,249.3,28,249.3,28z M250.3,21.3H249V20h1.3V21.3z M250.3,24.2H249v-1.3h1.3V24.2z"/>
	</g>
	<g>
		<path class="st2" d="M18.3,25H1.9v-9.7h44.6V25H30.1v42.6H18.3V25z"/>
		<path class="st2" d="M90.1,45v22.5H78.7V46.8c0-6.4-2.9-9.3-8-9.3c-5.5,0-9.4,3.4-9.4,10.6v19.5H49.8V15.3h11.4v17
			c3.1-3.1,7.5-4.7,12.5-4.7C83,27.6,90.1,33,90.1,45z"/>
		<path class="st2" d="M136.9,51.1h-29.8c1.1,4.9,5.3,7.9,11.3,7.9c4.2,0,7.2-1.2,9.9-3.8l6.1,6.6c-3.7,4.2-9.1,6.4-16.2,6.4
			c-13.6,0-22.5-8.6-22.5-20.3c0-11.8,9-20.3,21-20.3c11.6,0,20.5,7.8,20.5,20.4C137.1,48.9,137,50.2,136.9,51.1z M107,44.5h19.4
			c-0.8-5-4.5-8.2-9.7-8.2C111.5,36.3,107.8,39.4,107,44.5z"/>
	</g>
	<g>
		<path class="st2" d="M191.9,41.2h10.8V62c-5.6,4.2-13.4,6.5-20.7,6.5c-16.1,0-28-11.1-28-26.5c0-15.4,11.9-26.5,28.2-26.5
			c9,0,16.5,3.1,21.4,8.9l-7.6,7c-3.7-4-8.1-5.8-13.2-5.8c-10,0-16.8,6.7-16.8,16.4c0,9.6,6.8,16.4,16.6,16.4c3.2,0,6.2-0.6,9.2-2.2
			V41.2z"/>
		<g>
			<rect x="209.4" y="28.2" class="st2" width="11.4" height="19.4"/>
			<path class="st2" d="M237.9,49.2c0,6-3.8,9.1-9.1,9.1c-4.9,0-7.8-2.8-8-9.1h-11.4v1.2c0,12.2,7,17.7,16.8,17.7
				c4.8,0,9.2-1.8,12.2-5.3v4.7h10.8V49.2H237.9z"/>
		</g>
		<rect x="251.6" y="49.2" class="st2" width="11.4" height="18.4"/>
		<g>
			<path class="st2" d="M282.9,30.4c0-3.9,1.8-5.7,5.2-5.7c1.8,0,3.4,0.5,4.6,1.4l3-8.3c-2.1-1.5-5.5-2.1-8.7-2.1
				c-9.8,0-15.2,5.8-15.2,14.6v1.8h-6.1v8.8h6.1v6.8h11.4v-6.8h9.8v-8.8h-10.1V30.4z"/>
			<rect x="271.8" y="49.2" class="st2" width="11.4" height="18.4"/>
		</g>
	</g>
	<g>
		<path class="st2" d="M354.1,33.9c0,11.4-8.6,18.5-22.3,18.5h-10.3v15.1h-11.9V15.3h22.2C345.5,15.3,354.1,22.4,354.1,33.9z
			 M342.1,33.9c0-5.6-3.7-8.9-10.9-8.9h-9.7v17.8h9.7C338.4,42.8,342.1,39.5,342.1,33.9z"/>
		<path class="st2" d="M399.8,28.2v39.4H389v-4.7c-3,3.4-7.4,5.3-12.2,5.3c-9.9,0-16.8-5.6-16.8-17.7V28.2h11.4v20.6
			c0,6.6,2.9,9.5,8,9.5c5.3,0,9.1-3.4,9.1-10.6V28.2H399.8z"/>
		<path class="st2" d="M408.2,15.5h11.4v52h-11.4V15.5z"/>
		<path class="st2" d="M424.2,63.9l3.8-8.2c3.5,2.3,8.9,3.8,13.7,3.8c5.3,0,7.2-1.4,7.2-3.6c0-6.4-23.8,0.1-23.8-15.6
			c0-7.5,6.7-12.7,18.2-12.7c5.4,0,11.4,1.2,15.2,3.4l-3.8,8.1c-3.9-2.2-7.8-2.9-11.3-2.9c-5.1,0-7.3,1.6-7.3,3.7
			c0,6.7,23.8,0.2,23.8,15.7c0,7.3-6.8,12.5-18.6,12.5C434.5,68.2,427.8,66.3,424.2,63.9z"/>
		<path class="st2" d="M502.9,51.1h-29.8c1.1,4.9,5.3,7.9,11.3,7.9c4.2,0,7.2-1.2,9.9-3.8l6.1,6.6c-3.7,4.2-9.1,6.4-16.3,6.4
			c-13.6,0-22.5-8.6-22.5-20.3c0-11.8,9-20.3,21-20.3c11.6,0,20.5,7.8,20.5,20.4C503.1,48.9,503,50.2,502.9,51.1z M473,44.5h19.4
			c-0.8-5-4.5-8.2-9.7-8.2C477.5,36.3,473.8,39.4,473,44.5z"/>
	</g>
</g>
</svg>
