<svg width="171" height="52" viewBox="0 0 171 52" fill="none" xmlns="http://www.w3.org/2000/svg">
<path d="M38.4421 34.7273C38.5581 34.7273 38.6718 34.6995 38.7738 34.6438C38.8759 34.5881 38.9617 34.5094 39.022 34.4143C39.0824 34.3192 39.1172 34.2102 39.1241 34.0966C39.1288 33.983 39.1056 33.8718 39.0545 33.7721L36.25 28.3145C36.1944 28.2031 36.1062 28.1104 35.9995 28.0455C35.8928 27.9806 35.7675 27.9458 35.6399 27.9458C35.5123 27.9458 35.3894 27.9806 35.2804 28.0455C35.1737 28.1104 35.0855 28.2031 35.0299 28.3145L32.2485 33.7721C32.1975 33.8718 32.172 33.9854 32.1789 34.0966C32.1836 34.2079 32.2207 34.3192 32.281 34.4143C32.3413 34.5094 32.4272 34.5881 32.5292 34.6438C32.6313 34.6995 32.745 34.7273 32.8609 34.7273H38.4445H38.4421Z" fill="#227360"/>
<path d="M0 33.3733V51.8281H20.0793L17.6436 47.6784L13.9391 41.3859C13.8788 41.2839 13.793 41.2004 13.6909 41.1425C13.5865 41.0845 13.4682 41.0521 13.3476 41.0544H7.57152C7.39056 41.0544 7.21658 41.1239 7.08903 41.2468C6.96143 41.372 6.8895 41.5389 6.8895 41.7151V47.0566C6.8895 47.233 6.81761 47.4 6.69001 47.525C6.56246 47.6479 6.38844 47.7177 6.20983 47.7177H5.37939C5.19847 47.7177 5.0268 47.6479 4.8992 47.525C4.77165 47.4 4.69971 47.233 4.69971 47.0566V39.712C4.66726 39.2529 4.77395 39.0605 5.30516 39.0489H14.686C15.7949 39.0489 16.6369 38.8055 17.2052 38.3325C17.7736 37.8595 18.0612 37.1594 18.0612 36.2366C18.0612 35.3139 17.7782 34.6346 17.2052 34.1292C16.6323 33.6237 15.8273 33.3757 14.795 33.3757H0V33.3733Z" fill="#227360"/>
<path d="M44.1555 36.7374H31.1838C31.0562 36.7374 30.9332 36.7699 30.8242 36.8348C30.7151 36.8997 30.6293 36.9924 30.5713 37.1014L28.6112 40.9779V40.9872C26.5676 45.0098 26.9224 44.351 25.2801 47.4557C25.2267 47.5551 25.1456 47.6386 25.0481 47.6969C24.9484 47.7548 24.8347 47.7849 24.7187 47.7849H23.8674C23.7491 47.7849 23.6331 47.7548 23.5287 47.6991C23.4243 47.6435 23.3362 47.5644 23.2736 47.4672C23.2086 47.3699 23.1715 47.2586 23.1622 47.145C23.153 47.0315 23.1738 46.9152 23.2248 46.811L25.1502 43.134H25.1571L27.0825 39.3341V39.3271L34.538 24.5563C34.5937 24.4473 34.6819 24.3546 34.7909 24.2896C34.8999 24.2247 35.0228 24.1923 35.1504 24.1923H36.1293C36.2569 24.1923 36.3799 24.2271 36.4889 24.2896C36.5956 24.3546 36.6838 24.4473 36.7418 24.5563L41.9286 34.7273H44.1602V7.46929H36.7766V20.4828C36.7766 20.5685 36.758 20.6543 36.7255 20.7355C36.693 20.8166 36.642 20.8885 36.5771 20.9488C36.5144 21.0091 36.4378 21.0578 36.3567 21.0925C36.2732 21.125 36.185 21.1435 36.0969 21.1435H35.2339C35.053 21.1435 34.8814 21.074 34.7515 20.9511C34.6239 20.8282 34.552 20.6589 34.552 20.4828V7.46929H0V31.4004H6.93128V11.2205C6.93128 11.0444 7.00317 10.8774 7.13077 10.7522C7.25836 10.627 7.43234 10.5575 7.61325 10.5575H8.59914C8.71281 10.5575 8.82184 10.5853 8.92158 10.6363C9.02132 10.6873 9.10484 10.7638 9.16744 10.8543L15.5351 20.2254C15.5977 20.3158 15.6812 20.3924 15.7809 20.4434C15.8807 20.4943 15.9897 20.5222 16.1034 20.5222C16.217 20.5222 16.3261 20.4943 16.4258 20.4434C16.5255 20.3924 16.6091 20.3158 16.6717 20.2254L23.0903 10.845C23.153 10.7546 23.2364 10.6804 23.3362 10.627C23.436 10.576 23.545 10.5482 23.6586 10.5482H24.612C24.7025 10.5482 24.7907 10.5644 24.8718 10.5992C24.9554 10.6317 25.0296 10.6804 25.0922 10.7429C25.1548 10.8056 25.2059 10.8774 25.2407 10.9586C25.2755 11.0397 25.2917 11.1255 25.2917 11.2113V29.381C25.2917 29.5572 25.2198 29.7241 25.0922 29.8493C24.9646 29.9745 24.7907 30.044 24.612 30.044H23.7978C23.6169 30.044 23.4452 29.9745 23.3176 29.8493C23.1901 29.7241 23.1182 29.5572 23.1182 29.381V16.4904C23.1182 16.3467 23.0717 16.2075 22.9836 16.0916C22.8955 15.9757 22.7725 15.8922 22.631 15.8505C22.4895 15.8087 22.3387 15.8134 22.1995 15.8621C22.0603 15.9108 21.9421 16.0035 21.8632 16.1218L16.6647 23.6498C16.6021 23.7402 16.5186 23.8121 16.4212 23.863C16.3237 23.9141 16.2124 23.9396 16.1011 23.9396C15.9897 23.9396 15.8807 23.9141 15.7809 23.863C15.6835 23.8121 15.5977 23.7379 15.5374 23.6498L10.3389 16.1194C10.2577 16.0012 10.1394 15.9131 10.0026 15.8667C9.86569 15.8204 9.71722 15.8157 9.57804 15.8574C9.43886 15.8992 9.31591 15.9803 9.23009 16.0939C9.14193 16.2075 9.09556 16.3443 9.09326 16.4858V31.3957H14.8298C16.5627 31.3957 17.9174 31.8177 18.894 32.6593C19.8729 33.5008 20.3647 34.6717 20.3693 36.1671C20.3693 37.4097 19.9842 38.4739 19.2164 39.3619C18.6272 40.0458 17.8501 40.5513 16.9779 40.8225C16.8828 40.8526 16.7993 40.9037 16.7274 40.9709C16.6554 41.0381 16.6021 41.1193 16.565 41.2097C16.5302 41.3001 16.5163 41.3975 16.5255 41.4926C16.5348 41.5876 16.565 41.6827 16.6137 41.7661L19.9958 47.537L22.522 51.8237H44.1555V36.7328V36.7374Z" fill="#227360"/>
<path d="M59.2311 8.58907C59.2311 8.45925 59.2567 8.33172 59.3076 8.21117C59.3589 8.09058 59.4331 7.98161 59.5282 7.8912C59.6233 7.79845 59.7347 7.7266 59.8576 7.67791C59.9805 7.62921 60.1127 7.60372 60.2471 7.60372H61.7132C61.8803 7.60372 62.0452 7.64547 62.1933 7.72196C62.3419 7.79845 62.4674 7.90976 62.5598 8.04653L72.0385 22.0059C72.1309 22.1404 72.2564 22.2517 72.405 22.3305C72.5531 22.407 72.718 22.4488 72.8851 22.4488C73.0518 22.4488 73.2167 22.4093 73.3653 22.3305C73.5138 22.254 73.639 22.1427 73.7318 22.0059L83.2794 8.04189C83.3723 7.90742 83.4978 7.79616 83.646 7.71962C83.7945 7.64313 83.9568 7.60372 84.1261 7.60372H85.5458C85.815 7.60372 86.0723 7.70804 86.2629 7.8912C86.453 8.07666 86.5595 8.32708 86.5595 8.58673V32.1631C86.5595 32.425 86.453 32.6754 86.2629 32.8586C86.0723 33.0441 85.815 33.1461 85.5458 33.1461H84.3374C84.0682 33.1461 83.8109 33.0418 83.6208 32.8586C83.4302 32.6731 83.3236 32.4227 83.3236 32.1631V16.4394C83.3236 16.2284 83.2542 16.022 83.1242 15.8528C82.9943 15.6835 82.8134 15.5583 82.6048 15.4957C82.3956 15.4331 82.1732 15.4401 81.969 15.5096C81.7647 15.5792 81.5883 15.7137 81.4681 15.8899L73.7225 27.0972C73.6297 27.2317 73.5046 27.3407 73.3582 27.4172C73.2119 27.4937 73.0474 27.5331 72.8803 27.5331C72.7132 27.5331 72.5509 27.4937 72.4023 27.4172C72.2564 27.3407 72.1309 27.2317 72.0385 27.0972L64.2996 15.8922C64.1793 15.716 64.0029 15.5838 63.7987 15.512C63.5944 15.4401 63.372 15.4354 63.1633 15.4981C62.9542 15.5606 62.7734 15.6835 62.6434 15.8551C62.5134 16.0243 62.444 16.2307 62.444 16.4417V32.1654C62.444 32.4274 62.3374 32.6754 62.1469 32.8609C61.9568 33.0464 61.6995 33.1484 61.4302 33.1507H60.2449C60.1105 33.1507 59.9805 33.1252 59.8576 33.0765C59.7347 33.0279 59.6233 32.9537 59.5282 32.8632C59.4331 32.7728 59.3589 32.6638 59.3076 32.5433C59.2567 32.4227 59.2311 32.2952 59.2311 32.1654V8.58907ZM98.9699 32.1631V8.45461C98.9699 8.19261 99.0769 7.9422 99.267 7.75904C99.4571 7.57358 99.7144 7.47155 99.9837 7.47155H101.267C101.536 7.47155 101.793 7.57592 101.983 7.75904C102.174 7.94454 102.28 8.19491 102.28 8.45461V32.1654C102.28 32.4274 102.174 32.6777 101.983 32.8609C101.793 33.0464 101.536 33.1484 101.267 33.1484H99.9793C99.71 33.1484 99.4549 33.0441 99.2648 32.8586C99.0742 32.6731 98.9699 32.425 98.9699 32.1631ZM117.987 18.002C117.987 18.2639 118.093 18.512 118.284 18.6975C118.474 18.883 118.731 18.985 119.001 18.9873H129.593C131.244 18.9873 132.494 18.6326 133.341 17.9208C134.195 17.2091 134.617 16.175 134.617 14.8025C134.617 13.43 134.195 12.4168 133.341 11.6656C132.487 10.9168 131.3 10.5435 129.755 10.5435H119.001C118.731 10.5435 118.474 10.6479 118.284 10.8333C118.093 11.0188 117.987 11.2692 117.987 11.5288V18.0043V18.002ZM114.728 32.1631V8.58907C114.728 8.32708 114.835 8.07666 115.025 7.89355C115.215 7.70804 115.473 7.60606 115.741 7.60606H129.801C132.378 7.60606 134.394 8.23203 135.851 9.48632C137.308 10.7406 138.038 12.4794 138.048 14.7074C138.048 16.5553 137.475 18.1388 136.331 19.4626C135.454 20.4781 134.299 21.2339 133 21.6373C132.861 21.6837 132.733 21.7602 132.626 21.8599C132.52 21.9595 132.439 22.0824 132.388 22.2146C132.336 22.3491 132.316 22.4928 132.327 22.6366C132.339 22.7803 132.383 22.9171 132.457 23.0423L137.521 31.6832C137.609 31.8315 137.653 32.0008 137.653 32.1747C137.653 32.3462 137.605 32.5155 137.516 32.6639C137.428 32.8122 137.301 32.9374 137.148 33.0232C136.995 33.109 136.82 33.1554 136.644 33.1554H135.357C135.178 33.1554 135.004 33.109 134.849 33.0232C134.696 32.9351 134.568 32.8122 134.478 32.6615L128.481 22.4766C128.393 22.3259 128.265 22.2007 128.11 22.1149C127.957 22.0268 127.781 21.9827 127.602 21.9827H119.005C118.736 21.9827 118.479 22.0871 118.288 22.2702C118.098 22.4557 117.992 22.7038 117.992 22.9658V32.1723C117.992 32.4343 117.885 32.6847 117.695 32.8679C117.505 33.0533 117.247 33.1554 116.978 33.1554H115.744C115.609 33.1554 115.477 33.1322 115.352 33.0812C115.226 33.0325 115.115 32.9583 115.02 32.8679C114.925 32.7751 114.85 32.6662 114.8 32.5456C114.749 32.425 114.723 32.2952 114.723 32.1654L114.728 32.1631ZM161.407 23.2904C161.579 23.2904 161.75 23.2486 161.901 23.1675C162.052 23.0864 162.18 22.9681 162.27 22.8267C162.36 22.6853 162.414 22.5207 162.421 22.3537C162.428 22.1868 162.393 22.0199 162.316 21.8691L158.143 13.7476C158.06 13.583 157.93 13.4462 157.77 13.3488C157.61 13.2515 157.424 13.2005 157.236 13.2005C157.048 13.2005 156.863 13.2515 156.703 13.3488C156.543 13.4462 156.413 13.583 156.329 13.7476L152.193 21.8691C152.117 22.0199 152.079 22.1845 152.086 22.3514C152.094 22.5183 152.147 22.6806 152.237 22.8244C152.328 22.9658 152.453 23.084 152.604 23.1651C152.754 23.2463 152.924 23.2904 153.096 23.2904H161.407ZM143.696 31.7319L155.592 8.15784C155.675 7.99324 155.805 7.85413 155.965 7.75674C156.125 7.65935 156.311 7.60835 156.501 7.60835H157.958C158.146 7.60835 158.331 7.65935 158.491 7.75674C158.651 7.85413 158.781 7.99089 158.865 8.1555L170.895 31.7295C170.971 31.8802 171.006 32.0471 170.999 32.2141C170.992 32.381 170.939 32.5433 170.848 32.687C170.758 32.8285 170.63 32.9467 170.48 33.0279C170.329 33.109 170.16 33.153 169.988 33.153H168.698C168.51 33.153 168.327 33.102 168.167 33.007C168.007 32.9119 167.877 32.7751 167.793 32.6128L164.787 26.8214C164.703 26.6591 164.573 26.5223 164.413 26.4272C164.253 26.3322 164.07 26.2812 163.882 26.2812H150.6C150.409 26.2812 150.224 26.3322 150.064 26.4296C149.904 26.5269 149.774 26.666 149.69 26.8306L146.772 32.6013C146.689 32.7659 146.559 32.905 146.399 33.0024C146.239 33.0997 146.053 33.1507 145.863 33.1507H144.61C144.439 33.1507 144.269 33.109 144.119 33.0279C143.968 32.9467 143.84 32.8308 143.749 32.6894C143.659 32.5479 143.606 32.3856 143.596 32.2187C143.587 32.0518 143.622 31.8848 143.699 31.7365" fill="#227360"/>
<path d="M163.219 51.9165V44.6272H164.072L167.334 50.1357H166.877L170.099 44.6272H170.953L170.962 51.9165H169.965L169.953 46.1989H170.194L167.325 51.0305H166.847L163.957 46.1989H164.216V51.9165H163.219Z" fill="#227360"/>
<path d="M153.608 51.9165H152.569V44.6272H157.703V45.5335H153.608V51.9187V51.9165ZM153.504 48.0725H157.255V48.9674H153.504V48.0725Z" fill="#227360"/>
<path d="M137.335 51.9996C136.781 51.9996 136.252 51.916 135.746 51.7495C135.241 51.5753 134.842 51.3531 134.552 51.084L134.937 50.2727C135.213 50.5157 135.568 50.7177 135.997 50.8776C136.426 51.0376 136.874 51.1162 137.338 51.1162C137.76 51.1162 138.103 51.0676 138.368 50.9704C138.632 50.8728 138.825 50.7406 138.95 50.574C139.075 50.3999 139.138 50.2051 139.138 49.9894C139.138 49.7393 139.054 49.5374 138.887 49.3845C138.727 49.2316 138.516 49.111 138.254 49.0204C137.997 48.9232 137.713 48.8396 137.403 48.7703C137.092 48.7005 136.777 48.6218 136.457 48.5312C136.146 48.434 135.858 48.3134 135.594 48.1671C135.336 48.0213 135.13 47.8264 134.97 47.5829C134.81 47.3328 134.73 47.0129 134.73 46.6254C134.73 46.2383 134.828 45.9069 135.021 45.594C135.222 45.2741 135.526 45.0213 135.934 44.8335C136.35 44.6387 136.876 44.5414 137.514 44.5414C137.936 44.5414 138.356 44.5971 138.772 44.708C139.187 44.8194 139.549 44.9793 139.852 45.1879L139.509 46.0204C139.198 45.8119 138.869 45.6634 138.521 45.5728C138.176 45.4756 137.839 45.427 137.512 45.427C137.104 45.427 136.767 45.4778 136.503 45.5821C136.239 45.6864 136.046 45.8256 135.921 45.9997C135.802 46.1733 135.744 46.3682 135.744 46.5838C135.744 46.841 135.823 47.0452 135.983 47.198C136.15 47.3514 136.361 47.4716 136.617 47.5622C136.881 47.6527 137.166 47.7363 137.48 47.8127C137.79 47.8821 138.103 47.9612 138.414 48.0513C138.732 48.1419 139.02 48.2599 139.277 48.4062C139.542 48.552 139.753 48.7468 139.91 48.9903C140.068 49.2338 140.15 49.5467 140.15 49.9271C140.15 50.3071 140.05 50.639 139.848 50.9589C139.646 51.2718 139.335 51.5245 138.913 51.719C138.498 51.9068 137.971 51.9996 137.333 51.9996H137.335Z" fill="#227360"/>
<path d="M126.827 51.9996C126.273 51.9996 125.744 51.916 125.238 51.7495C124.733 51.5753 124.334 51.3531 124.044 51.084L124.429 50.2727C124.705 50.5157 125.06 50.7177 125.489 50.8776C125.918 51.0376 126.366 51.1162 126.83 51.1162C127.252 51.1162 127.595 51.0676 127.859 50.9704C128.124 50.8728 128.317 50.7406 128.442 50.574C128.567 50.3999 128.63 50.2051 128.63 49.9894C128.63 49.7393 128.546 49.5374 128.379 49.3845C128.219 49.2316 128.008 49.111 127.746 49.0204C127.489 48.9232 127.206 48.8396 126.895 48.7703C126.584 48.7005 126.268 48.6218 125.948 48.5312C125.637 48.434 125.35 48.3134 125.085 48.1671C124.828 48.0213 124.621 47.8264 124.461 47.5829C124.301 47.3328 124.222 47.0129 124.222 46.6254C124.222 46.2383 124.32 45.9069 124.512 45.594C124.714 45.2741 125.018 45.0213 125.426 44.8335C125.842 44.6387 126.368 44.5414 127.006 44.5414C127.428 44.5414 127.848 44.5971 128.263 44.708C128.678 44.8194 129.04 44.9793 129.344 45.1879L129.001 46.0204C128.69 45.8119 128.361 45.6634 128.013 45.5728C127.667 45.4756 127.331 45.427 127.004 45.427C126.595 45.427 126.259 45.4778 125.995 45.5821C125.73 45.6864 125.537 45.8256 125.412 45.9997C125.294 46.1733 125.236 46.3682 125.236 46.5838C125.236 46.841 125.315 47.0452 125.475 47.198C125.642 47.3514 125.853 47.4716 126.108 47.5622C126.373 47.6527 126.658 47.7363 126.971 47.8127C127.282 47.8821 127.595 47.9612 127.906 48.0513C128.224 48.1419 128.512 48.2599 128.769 48.4062C129.033 48.552 129.245 48.7468 129.402 48.9903C129.56 49.2338 129.641 49.5467 129.641 49.9271C129.641 50.3071 129.541 50.639 129.34 50.9589C129.138 51.2718 128.827 51.5245 128.405 51.719C127.989 51.9068 127.463 51.9996 126.825 51.9996H126.827Z" fill="#227360"/>
<path d="M114.73 51.0097H118.971V51.9165H113.691V44.6272H118.824V45.5335H114.73V51.0119V51.0097ZM114.637 47.7712H118.379V48.6567H114.637V47.7712Z" fill="#227360"/>
<path d="M101.204 51.9165V44.6272H102.055L106.868 50.6156H106.421V44.6272H107.46V51.9165H106.609L101.796 45.9276H102.243V51.9165H101.204Z" fill="#227360"/>
<path d="M94.9731 44.6272H93.9341V51.9165H94.9731V44.6272Z" fill="#227360"/>
<path d="M85.5458 51.9996C84.9913 51.9996 84.4626 51.916 83.9568 51.7495C83.4514 51.5753 83.0522 51.3531 82.7621 51.084L83.1472 50.2727C83.4236 50.5157 83.7782 50.7177 84.2075 50.8776C84.6368 51.0376 85.0842 51.1162 85.5484 51.1162C85.9702 51.1162 86.3137 51.0676 86.5781 50.9704C86.8425 50.8728 87.0353 50.7406 87.1604 50.574C87.2855 50.3999 87.3483 50.2051 87.3483 49.9894C87.3483 49.7393 87.2647 49.5374 87.0976 49.3845C86.9375 49.2316 86.7267 49.111 86.4645 49.0204C86.2072 48.9232 85.9242 48.8396 85.613 48.7703C85.3021 48.7005 84.9869 48.6218 84.6668 48.5312C84.356 48.434 84.0682 48.3134 83.8038 48.1671C83.5465 48.0213 83.34 47.8264 83.18 47.5829C83.0199 47.3328 82.9408 47.0129 82.9408 46.6254C82.9408 46.2383 83.0385 45.9069 83.2308 45.594C83.4329 45.2741 83.7366 45.0213 84.1447 44.8335C84.5598 44.6387 85.0864 44.5414 85.7244 44.5414C86.1466 44.5414 86.5666 44.5971 86.9818 44.708C87.3969 44.8194 87.759 44.9793 88.0628 45.1879L87.7197 46.0204C87.4084 45.8119 87.079 45.6634 86.7311 45.5728C86.3858 45.4756 86.0493 45.427 85.7222 45.427C85.3141 45.427 84.9776 45.4778 84.7132 45.5821C84.4488 45.6864 84.2561 45.8256 84.131 45.9997C84.0125 46.1733 83.9546 46.3682 83.9546 46.5838C83.9546 46.841 84.0332 47.0452 84.1933 47.198C84.3604 47.3514 84.5718 47.4716 84.8269 47.5622C85.0913 47.6527 85.3764 47.7363 85.6899 47.8127C86.0007 47.8821 86.3137 47.9612 86.6245 48.0513C86.9424 48.1419 87.2298 48.2599 87.4876 48.4062C87.7519 48.552 87.9628 48.7468 88.1207 48.9903C88.2807 49.2338 88.3599 49.5467 88.3599 49.9271C88.3599 50.3071 88.2599 50.639 88.0583 50.9589C87.8563 51.2718 87.5455 51.5245 87.1232 51.719C86.7081 51.9068 86.1815 51.9996 85.5435 51.9996H85.5458Z" fill="#227360"/>
<path d="M74.1633 52C73.2075 52 72.4558 51.7265 71.9085 51.1768C71.3607 50.6275 71.087 49.8273 71.087 48.7703V44.625H72.1265V48.7287C72.1265 49.54 72.3029 50.1335 72.6575 50.5091C73.0173 50.8847 73.5227 51.0725 74.1748 51.0725C74.8265 51.0725 75.3394 50.8847 75.6917 50.5091C76.0512 50.1335 76.2324 49.54 76.2324 48.7287V44.625H77.2414V48.7703C77.2414 49.825 76.9677 50.6275 76.4204 51.1768C75.8796 51.7265 75.128 52 74.1655 52H74.1633Z" fill="#227360"/>
<path d="M60.2705 51.0725H62.6597C63.2349 51.0725 63.6757 50.9753 63.9795 50.7804C64.2837 50.5855 64.4366 50.2793 64.4366 49.8644C64.4366 49.4494 64.2837 49.1317 63.9795 48.9373C63.6757 48.7424 63.2349 48.6452 62.6597 48.6452H60.1755V47.8012H62.3998C62.9263 47.8012 63.3349 47.7036 63.6271 47.5091C63.9171 47.3143 64.063 47.0222 64.063 46.6351C64.063 46.2476 63.9171 45.9555 63.6271 45.761C63.3371 45.5662 62.9263 45.4685 62.3998 45.4685H60.2705V51.0725ZM59.2311 51.9165V44.6272H62.4948C63.3327 44.6272 63.9773 44.7964 64.4274 45.1371C64.8774 45.4712 65.1025 45.9276 65.1025 46.5122C65.1025 46.9086 65.0118 47.24 64.8332 47.5113C64.6595 47.7827 64.4251 47.9912 64.1258 48.137C63.8287 48.2833 63.5064 48.3553 63.1585 48.3553L63.3464 48.042C63.7615 48.042 64.1302 48.1141 64.4481 48.2603C64.766 48.4062 65.0189 48.6218 65.2068 48.9068C65.3947 49.1852 65.4876 49.533 65.4876 49.9479C65.4876 50.574 65.251 51.0583 64.7802 51.4061C64.3159 51.7472 63.6222 51.9165 62.7013 51.9165H59.2311Z" fill="#227360"/>
<path d="M96.0705 6.44054C95.6978 6.07771 95.6929 5.47353 96.1058 5.15661C97.3566 4.19561 98.8488 3.67395 100.597 3.59304C102.283 3.59304 103.795 4.11446 105.119 5.1559C105.525 5.47494 105.518 6.07449 105.145 6.43131C104.776 6.78437 104.194 6.75795 103.787 6.44982C102.898 5.77723 101.833 5.44038 100.597 5.44038C99.4209 5.44038 98.3558 5.78885 97.4105 6.48394C97.0042 6.783 96.4321 6.7925 96.0705 6.44054ZM92.7448 3.17711C92.7439 3.17711 92.7444 3.17572 92.7444 3.17572C94.9935 1.08759 97.6064 0 100.597 0C103.265 0 105.728 0.864621 107.754 2.53212C108.162 2.86707 108.155 3.47874 107.77 3.83972C107.408 4.1803 106.845 4.16964 106.46 3.85549C104.823 2.51964 102.864 1.8475 100.597 1.8475C98.3386 1.8475 96.3601 2.51524 94.7202 3.84228C94.3267 4.16083 93.7511 4.16524 93.3903 3.81051L92.7453 3.17734L92.7448 3.17711Z" fill="#227360"/>
</svg>
