<svg class="zawya_logo_svg__zawya_logo" viewBox="0 0 543.8 244.4" xmlns="http://www.w3.org/2000/svg"><path class="zawya_logo_svg__st0" d="M0 0h543.8v244.4H0z" fill="none"></path><g fill="#000064"><path d="M285.9 168l11.9-35.8 11.8 35.8h-23.7zm172.2 0l11.9-35.8 11.8 35.8h-23.7zm-105.3 0l7.3-30.1 7.3 30.1h-14.6zm143 0V48L48 168h179.2v-9.9l20.4-27.4h-20.4V120H264v9.8l-20.5 27.4h21V168h7.3l18.1-48h15.6l18.1 48h16.1L326 120h13.9l7.3 32 8.2-32h9.5l8.2 32 7.2-32h14l-13.8 48H416v-19.4L397.7 120h14l10.4 17.7 10.3-17.7h14l-18.1 28.7V168H444l18.1-48h15.6l18.1 48zM414.2 182.4h7.1c2.6 0 4.1 1.6 4.1 3.7 0 1.8-1.2 3-2.5 3.3 1.5.2 2.8 1.8 2.8 3.5 0 2.2-1.5 3.9-4.2 3.9h-7.2v-14.4zm6.6 6c1.3 0 2-.8 2-1.8 0-1.1-.7-1.9-2-1.9h-4v3.7h4zm.1 6.2c1.4 0 2.2-.8 2.2-2 0-1.1-.8-2-2.2-2h-4.1v4h4.1zM431.6 190.8l-5.6-8.4h2.9l4 6.1 3.9-6.1h2.9l-5.5 8.4v6h-2.5v-6zM446.7 182.4h2.5v12.1h6.3v2.2h-8.8v-14.3zM458.3 192.8c1 1.1 2.5 2 4.5 2 2.1 0 2.9-1 2.9-2 0-1.3-1.5-1.7-3.3-2.1-2.3-.6-5.1-1.3-5.1-4.3 0-2.4 2.1-4.2 5.2-4.2 2.2 0 4 .7 5.4 2l-1.4 1.9c-1.1-1.1-2.6-1.6-4.1-1.6-1.5 0-2.4.7-2.4 1.8s1.5 1.5 3.2 1.9c2.4.6 5.2 1.3 5.2 4.5 0 2.4-1.7 4.4-5.5 4.4-2.6 0-4.6-.9-5.8-2.3l1.2-2zM470.6 182.4h9.8v2.2h-7.3v3.7h7.2v2.2h-7.2v4h7.3v2.2h-9.8v-14.3zM489.9 182.2c2.8 0 4.6 1.3 5.8 3l-2.1 1.2c-.8-1.1-2.1-1.9-3.7-1.9-2.8 0-4.9 2.2-4.9 5.2s2.1 5.2 4.9 5.2c1.5 0 2.8-.7 3.4-1.3v-2.2H489v-2.2h6.8v5.4c-1.4 1.6-3.4 2.6-5.9 2.6-4.1 0-7.5-2.9-7.5-7.4s3.3-7.6 7.5-7.6z"></path></g></svg>